<svg width="146" height="47" viewBox="0 0 1460 470" fill="none" xmlns="http://www.w3.org/2000/svg">
<style>
    path {
      fill: black;
    }
    @media (prefers-color-scheme: dark) {
      path { fill: white; }
    }
  </style>
<g clip-path="url(#clip0_795_9535)">
<path d="M404.14 350.34C398.19 340.01 388.28 322.86 378.49 305.92C375.52 300.78 372.57 295.67 369.74 290.77C363.92 280.69 358.62 271.5 354.84 264.94C328.61 219.61 276.97 129.86 251.17 85.48C243.22 73.11 224.8 74.09 217.96 86.9C210.2 100.35 201.66 115.14 192.64 130.77C189.78 135.73 186.86 140.78 183.91 145.89C146.33 210.97 102.35 287.15 71.02 341.41C69.42 344.31 66.44 349.04 64.95 352.17C62.34 357.82 62.85 364.86 66.14 370.08C69.85 376.26 76.79 379.65 83.88 379.3C92.41 379.3 110.5 379.29 133.89 379.3C139.44 379.3 145.29 379.3 151.38 379.3C232.71 379.3 356.95 379.35 387.44 379.3C402.25 379.33 411.54 363.09 404.16 350.33L404.14 350.34ZM229.07 292.7L214.1 266.77C211.47 262.21 214.76 256.51 220.02 256.51H249.96C255.23 256.51 258.52 262.21 255.88 266.77L240.91 292.7C238.28 297.26 231.7 297.26 229.06 292.7H229.07ZM203.99 244.41C202.75 241.25 201.68 238.04 200.8 234.78L250.33 244.41H203.99ZM226.61 312.63C224.5 315.29 222.25 317.82 219.87 320.22L203.44 272.51L226.6 312.63H226.61ZM274.39 258.93C277.74 259.43 281.06 260.12 284.32 260.98L251.22 299.06L274.39 258.93ZM197.75 218.53C197.22 213.71 196.99 208.84 197.01 203.96L262.42 235.87L197.74 218.54L197.75 218.53ZM189.99 266.3L207.31 330.95C203.4 333.82 199.3 336.46 195.06 338.88L189.98 266.3H189.99ZM299.92 266.47C304.36 268.42 308.69 270.66 312.91 273.12L252.57 313.82L299.92 266.47ZM198.51 183.38C199.71 174.52 201.56 165.79 203.8 157.42L303.17 243.8L198.52 183.38H198.51ZM176.49 347.89C168.22 351.28 159.74 354.04 151.37 356.28L176.49 227.05V347.89ZM329.98 284.7C337.05 290.17 343.69 296.14 349.82 302.26L225.33 345.12L329.98 284.7ZM239.34 108.85C257.66 140.64 284.26 186.74 309.6 230.62L214.99 136.01C220.55 126.39 225.82 117.26 230.68 108.83C232.61 105.5 237.41 105.5 239.34 108.83V108.85ZM91.57 349.77C96.78 340.78 103.94 328.45 105.53 325.61C120.61 299.49 140.92 264.32 161.9 227.98L127.25 357.28C114.84 357.28 104.14 357.28 95.9 357.28C92.05 357.28 89.64 353.11 91.57 349.78V349.77ZM374.11 357.3C345.22 357.3 289.13 357.3 233.44 357.3L362.75 322.65C369.53 334.39 374.96 343.79 378.44 349.81C380.37 353.14 377.96 357.3 374.12 357.3H374.11Z" fill="black"/>
<path d="M594.24 116.6C593.07 111.88 588.83 108.57 583.97 108.57H567.56C562.7 108.57 558.46 111.88 557.29 116.6L501.65 340.99C500 347.66 505.04 354.11 511.92 354.11H517.58C522.5 354.11 526.77 350.72 527.88 345.93L539.73 295.02C540.84 290.23 545.11 286.84 550.03 286.84H601.49C606.41 286.84 610.68 290.23 611.79 295.02L623.64 345.93C624.75 350.72 629.02 354.11 633.94 354.11H639.6C646.47 354.11 651.52 347.66 649.87 340.99L594.23 116.6H594.24ZM591.09 263.29H560.44C553.63 263.29 548.59 256.95 550.14 250.32L570.62 151.75C571.89 146.3 579.65 146.3 580.92 151.75L601.4 250.32C602.94 256.95 597.91 263.29 591.1 263.29H591.09Z" fill="black"/>
<path d="M994.58 215.86H867.61C861.77 215.86 857.03 211.12 857.03 205.28V152.2C857.03 141.1 866.03 132.1 877.13 132.1H939.96C945.8 132.1 950.54 127.36 950.54 121.52V119.13C950.54 113.29 945.8 108.55 939.96 108.55H869.64C847.44 108.55 829.45 126.55 829.45 148.74V215.84H716.41C710.57 215.84 705.83 211.1 705.83 205.26V152.18C705.83 141.08 714.83 132.08 725.93 132.08H788.76C794.6 132.08 799.34 127.34 799.34 121.5V119.11C799.34 113.27 794.6 108.53 788.76 108.53H718.44C696.24 108.53 678.25 126.53 678.25 148.72V343.49C678.25 349.33 682.99 354.07 688.83 354.07H695.26C701.1 354.07 705.84 349.33 705.84 343.49V249.95C705.84 244.11 710.58 239.37 716.42 239.37H829.46V343.49C829.46 349.33 834.2 354.07 840.04 354.07H846.47C852.31 354.07 857.05 349.33 857.05 343.49V249.95C857.05 244.11 861.79 239.37 867.63 239.37H987.79C998.89 239.37 1007.89 248.37 1007.89 259.47V343.61C1007.89 349.45 1012.63 354.19 1018.47 354.19H1024.22C1030.06 354.19 1034.8 349.45 1034.8 343.61V256.02C1034.8 233.82 1016.8 215.83 994.61 215.83L994.58 215.86Z" fill="black"/>
<path d="M1202.87 108.57H1197.08C1191.25 108.57 1186.52 113.29 1186.5 119.11L1185.86 320.47L1128.16 116.27C1126.87 111.71 1122.72 108.57 1117.98 108.57H1092.83C1086.99 108.57 1082.25 113.31 1082.25 119.15V343.54C1082.25 349.38 1086.99 354.12 1092.83 354.12H1098.62C1104.45 354.12 1109.18 349.4 1109.2 343.58L1109.84 142.22L1167.54 346.42C1168.83 350.98 1172.98 354.12 1177.72 354.12H1202.87C1208.71 354.12 1213.45 349.38 1213.45 343.54V119.14C1213.45 113.3 1208.71 108.56 1202.87 108.56V108.57Z" fill="black"/>
<path d="M1293.92 132.11H1353.73C1359.57 132.11 1364.31 127.37 1364.31 121.53V119.14C1364.31 113.3 1359.57 108.56 1353.73 108.56H1286.78C1264.58 108.56 1246.59 126.56 1246.59 148.75V313.9C1246.59 336.1 1264.59 354.09 1286.78 354.09H1353.73C1359.57 354.09 1364.31 349.35 1364.31 343.51V341.12C1364.31 335.28 1359.57 330.54 1353.73 330.54H1293.92C1282.82 330.54 1273.82 321.54 1273.82 310.44V246.6C1273.82 240.76 1278.56 236.02 1284.4 236.02H1350.36C1356.2 236.02 1360.94 231.28 1360.94 225.44V223.05C1360.94 217.21 1356.2 212.47 1350.36 212.47H1284.4C1278.56 212.47 1273.82 207.73 1273.82 201.89V152.17C1273.82 141.07 1282.82 132.07 1293.92 132.07V132.11Z" fill="black"/>
<path d="M1018.67 138.5C1013.97 133.8 1005.96 135.95 1004.24 142.37L996.47 171.38C994.75 177.79 1000.62 183.66 1007.04 181.95L1036.05 174.18C1042.47 172.46 1044.61 164.44 1039.92 159.75L1018.69 138.52L1018.67 138.5Z" fill="black"/>
</g>
<defs>
<clipPath id="clip0_795_9535">
<rect width="1459.61" height="470" fill="white"/>
</clipPath>
</defs>
</svg>
